<svg id="visual" viewBox="0 0 1000 250" width="1000" height="250" xmlns="http://www.w3.org/2000/svg" xmlns:xlink="http://www.w3.org/1999/xlink" version="1.1"><rect x="0" y="0" width="1000" height="250" fill="#231b31"></rect><path d="M0 123L27.8 122.3C55.7 121.7 111.3 120.3 166.8 126.2C222.3 132 277.7 145 333.2 145.7C388.7 146.3 444.3 134.7 500 125.8C555.7 117 611.3 111 666.8 112.3C722.3 113.7 777.7 122.3 833.2 127.3C888.7 132.3 944.3 133.7 972.2 134.3L1000 135L1000 251L972.2 251C944.3 251 888.7 251 833.2 251C777.7 251 722.3 251 666.8 251C611.3 251 555.7 251 500 251C444.3 251 388.7 251 333.2 251C277.7 251 222.3 251 166.8 251C111.3 251 55.7 251 27.8 251L0 251Z" fill="#e36124"></path><path d="M0 156L27.8 152.7C55.7 149.3 111.3 142.7 166.8 140C222.3 137.3 277.7 138.7 333.2 137.5C388.7 136.3 444.3 132.7 500 133.5C555.7 134.3 611.3 139.7 666.8 147C722.3 154.3 777.7 163.7 833.2 166.5C888.7 169.3 944.3 165.7 972.2 163.8L1000 162L1000 251L972.2 251C944.3 251 888.7 251 833.2 251C777.7 251 722.3 251 666.8 251C611.3 251 555.7 251 500 251C444.3 251 388.7 251 333.2 251C277.7 251 222.3 251 166.8 251C111.3 251 55.7 251 27.8 251L0 251Z" fill="#f5814c"></path><path d="M0 166L27.8 166C55.7 166 111.3 166 166.8 166.3C222.3 166.7 277.7 167.3 333.2 168C388.7 168.7 444.3 169.3 500 168C555.7 166.7 611.3 163.3 666.8 160.8C722.3 158.3 777.7 156.7 833.2 155.8C888.7 155 944.3 155 972.2 155L1000 155L1000 251L972.2 251C944.3 251 888.7 251 833.2 251C777.7 251 722.3 251 666.8 251C611.3 251 555.7 251 500 251C444.3 251 388.7 251 333.2 251C277.7 251 222.3 251 166.8 251C111.3 251 55.7 251 27.8 251L0 251Z" fill="#ff9462"></path><path d="M0 213L27.8 209.8C55.7 206.7 111.3 200.3 166.8 195C222.3 189.7 277.7 185.3 333.2 188.8C388.7 192.3 444.3 203.7 500 207C555.7 210.3 611.3 205.7 666.8 200C722.3 194.3 777.7 187.7 833.2 189.3C888.7 191 944.3 201 972.2 206L1000 211L1000 251L972.2 251C944.3 251 888.7 251 833.2 251C777.7 251 722.3 251 666.8 251C611.3 251 555.7 251 500 251C444.3 251 388.7 251 333.2 251C277.7 251 222.3 251 166.8 251C111.3 251 55.7 251 27.8 251L0 251Z" fill="#f5814c"></path><path d="M0 223L27.8 221.2C55.7 219.3 111.3 215.7 166.8 213.7C222.3 211.7 277.7 211.3 333.2 214C388.7 216.7 444.3 222.3 500 224.2C555.7 226 611.3 224 666.8 223.5C722.3 223 777.7 224 833.2 225.7C888.7 227.3 944.3 229.7 972.2 230.8L1000 232L1000 251L972.2 251C944.3 251 888.7 251 833.2 251C777.7 251 722.3 251 666.8 251C611.3 251 555.7 251 500 251C444.3 251 388.7 251 333.2 251C277.7 251 222.3 251 166.8 251C111.3 251 55.7 251 27.8 251L0 251Z" fill="#e36124"></path></svg>