<svg id="visual" viewBox="0 0 900 450" width="900" height="450" xmlns="http://www.w3.org/2000/svg" xmlns:xlink="http://www.w3.org/1999/xlink" version="1.1"><rect x="0" y="0" width="900" height="450" fill="#e36124"></rect><path d="M0 296L30 297.2C60 298.3 120 300.7 180 297.8C240 295 300 287 360 263.2C420 239.3 480 199.7 540 181.2C600 162.7 660 165.3 720 168.8C780 172.3 840 176.7 870 178.8L900 181L900 451L870 451C840 451 780 451 720 451C660 451 600 451 540 451C480 451 420 451 360 451C300 451 240 451 180 451C120 451 60 451 30 451L0 451Z" fill="#231b31" stroke-linecap="round" stroke-linejoin="miter"></path></svg>