<svg fill="none" height="64" width="234" xmlns="http://www.w3.org/2000/svg"><g clip-rule="evenodd" fill="#fff" fill-rule="evenodd"><path d="M65.112 24.456c.783.454 1.956.818 3.424 1.09 1.467.364 3.032.454 4.597.454 1.566 0 2.935-.181 4.207-.545 1.271-.363 2.347-.908 3.326-1.544.88-.636 1.663-1.454 2.152-2.453.489-1 .782-1.999.782-3.27 0-1.454-.489-2.726-1.37-3.907-.88-1.09-2.445-1.999-4.597-2.635l-4.206-1.272c-1.565-.454-2.74-.999-3.326-1.544-.587-.545-.88-1.181-.88-1.999 0-1.09.489-1.998 1.369-2.453.978-.545 2.25-.817 4.01-.817 2.153 0 4.011.363 5.772 1.09.49.182.88.363 1.174.363.49 0 .685-.272.685-.908v-1.09c0-.364-.098-.727-.294-.909a2.261 2.261 0 00-.88-.727c-.293-.181-.783-.363-1.272-.454-.489-.182-1.076-.272-1.663-.454-.587-.091-1.271-.273-1.956-.273-.685-.181-1.37-.181-2.054-.181-1.37 0-2.544.181-3.718.454-1.173.363-2.25.817-3.13 1.453a8.223 8.223 0 00-2.152 2.272c-.587.908-.783 1.907-.783 3.089 0 1.453.49 2.816 1.468 3.997.978 1.272 2.543 2.18 4.793 2.816l4.304 1.272c1.467.454 2.446.909 3.033 1.454.587.545.782 1.18.782 1.907 0 1.09-.489 2-1.565 2.635-1.076.636-2.445.909-4.402.909-1.174 0-2.348-.091-3.522-.364-1.173-.181-2.25-.545-3.325-1a7.074 7.074 0 01-.783-.272c-.196-.09-.391-.09-.587-.09-.489 0-.685.272-.685.908v1.363c0 .272.098.545.196.817.293.364.587.545 1.076.818zM16.138 10.972c-1.067-.181-2.135-.181-3.105-.181-3.007 0-5.433.724-7.276 2.173-1.844 1.448-2.717 3.35-2.717 5.703 0 2.264.68 3.984 2.135 5.342S8.57 26 11.093 26c3.493 0 6.403-1.268 8.732-3.803.29.634.582 1.177.873 1.63s.68.905 1.067 1.267c.291.272.582.362.873.362.194 0 .485-.09.776-.271l1.844-1.177c.388-.272.582-.543.582-.815 0-.181-.097-.362-.194-.634-.388-.724-.776-1.358-.97-1.991-.194-.634-.291-1.449-.291-2.445V9.071c0-2.988-.777-5.251-2.426-6.79C20.31.74 17.787.018 14.197.018c-1.649 0-3.201.18-4.657.543-1.358.362-2.62.724-3.686 1.267-.388.181-.68.362-.777.543-.194.182-.194.544-.194.996v1.358c0 .543.194.906.583.906.097 0 .29 0 .485-.09.194-.091.582-.182 1.067-.363 1.067-.362 2.134-.724 3.202-.905 1.067-.273 2.134-.363 3.2-.363 2.329 0 3.881.453 4.851 1.268.97.815 1.359 2.354 1.359 4.436v1.992a58.542 58.542 0 00-3.493-.634zm3.396 4.889c0 .905-.097 1.72-.291 2.354-.194.633-.485 1.267-.97 1.72-.777.815-1.747 1.448-2.814 1.72-1.067.362-2.135.543-3.105.543-1.358 0-2.425-.362-3.105-.996-.679-.634-1.067-1.63-1.067-2.897 0-1.358.485-2.444 1.455-3.168.97-.725 2.426-1.087 4.366-1.087.874 0 1.844.09 2.814.181.97.09 1.843.272 2.717.453zm14.413 8.81c.188.567.375.945.563 1.134.188.189.563.283 1.125.283h2.438c.563 0 .938-.094 1.126-.283.187-.189.375-.567.562-1.134L44.17 6.058l4.5 18.612c.094.567.282.945.563 1.134.187.189.656.283 1.125.283h2.438c.47 0 .844-.094 1.126-.283.187-.189.469-.567.562-1.134l6.94-22.298c.094-.283.187-.567.187-.661 0-.19.094-.284.094-.473 0-.472-.187-.661-.656-.661h-2.626c-.563 0-.938.094-1.125.283-.188.19-.376.567-.563 1.134l-4.97 19.37L47.17 1.9c-.094-.567-.282-.945-.563-1.134-.187-.19-.656-.284-1.125-.284h-2.345c-.562 0-.937.095-1.125.284-.187.189-.375.567-.563 1.134l-4.5 19.085L32.166 1.9c-.188-.567-.376-.945-.563-1.134-.188-.19-.563-.284-1.125-.284h-2.814c-.469 0-.656.19-.656.662 0 .189.094.567.281 1.134zm42.481 13.983c-10.503 4.536-22.038 6.71-32.448 6.71-15.473 0-30.477-4.252-42.574-11.433-1.032-.661-1.876.473-.938 1.323C11.722 45.457 26.539 51.6 43.044 51.6c11.722 0 25.413-3.685 34.884-10.771 1.407-1.134.094-2.835-1.5-2.174z"/><path d="M71.954 34.596c-.793.539-.617 1.347.177 1.257 2.823-.359 9.262-1.167 10.32.36 1.147 1.436-1.235 7.542-2.293 10.326-.353.808.353 1.167 1.147.539 4.763-4.04 5.998-12.572 5.028-13.74-.97-1.346-9.35-2.334-14.379 1.258zm37.876-14.709c-.195 0-.39-.087-.39-.347V5.21c0-.173.098-.347.39-.347h.488c.293 0 .391.087.391.348l.098.868c.683-.521 1.464-.868 2.147-1.129.683-.26 1.367-.347 2.148-.347 1.561 0 2.733.52 3.611 1.476.879.955 1.367 2.345 1.367 3.995 0 1.737-.488 3.126-1.367 4.168-.976 1.042-2.147 1.563-3.807 1.563-1.464 0-2.733-.52-4.002-1.476v5.21c0 .174-.097.348-.39.348zm4.881-5.21c1.269 0 2.245-.348 2.929-1.13.683-.781.976-1.91.976-3.386 0-2.953-1.269-4.43-3.807-4.43-1.269 0-2.636.435-3.905 1.39v6.166c.683.521 1.269.868 1.855 1.129.586.087 1.269.26 1.952.26zm10.441.625c-1.056 0-1.92-.285-2.592-.948-.672-.569-.96-1.422-.96-2.465 0-1.137.384-1.99 1.152-2.654.768-.663 1.824-.947 3.168-.947 1.056 0 2.112.19 3.36.568V6.961c0-.948-.192-1.612-.672-1.991s-1.152-.569-2.208-.569-2.208.19-3.36.569c-.096 0-.288.095-.384.095-.192 0-.192-.095-.192-.285v-.473c0-.095 0-.19.096-.285l.192-.19c1.248-.473 2.496-.758 3.936-.758 1.344 0 2.4.285 3.072.853.672.57.96 1.422.96 2.56v8.151c0 .19-.096.38-.384.38h-.48c-.192 0-.384-.096-.384-.38l-.096-.948c-1.344 1.138-2.784 1.612-4.224 1.612zm.192-1.138c.576 0 1.248-.094 1.92-.379.672-.284 1.344-.568 2.112-1.042V9.899c-1.056-.284-2.016-.38-3.072-.38-2.208 0-3.264.854-3.264 2.465 0 .664.192 1.233.576 1.612s.96.568 1.728.568zm10.23 1.138c-.147 0-.294-.1-.294-.398V3.472c0-.199.074-.398.294-.398h.368c.221 0 .294.1.294.398l.074 1.392c.441-.696.883-1.193 1.324-1.392.441-.298.956-.398 1.471-.398h.441c.147 0 .294.1.294.398v.596c0 .1 0 .1-.073.2 0 .099-.074.099-.147.099h-.662c-.515 0-1.03.1-1.471.397-.442.299-.809.696-1.251 1.293v8.847c0 .199-.073.398-.294.398zm11.018 0c-.987 0-1.678-.289-2.172-.77-.493-.48-.79-1.153-.79-2.114V4.632h-1.875c-.197 0-.395-.096-.395-.385v-.192c0-.096 0-.192.099-.288 0-.097.099-.097.296-.097l1.974-.192.198-3.076c0-.096.098-.192.098-.288.099-.096.099-.096.296-.096h.395c.198 0 .395.096.395.384v3.076h3.455c.197 0 .394.096.394.385v.48c0 .193-.098.385-.394.385h-3.455v7.786c0 .673.099 1.057.395 1.346.296.288.789.384 1.382.384.493 0 .888 0 1.184-.096.197 0 .296-.096.395-.096h.197c.198 0 .296.096.296.288v.385c0 .288-.098.384-.296.48-.592 0-1.283.097-2.072.097zm5.773-.096c-.183 0-.365-.096-.365-.382V3.839c0-.192.091-.383.365-.383h.456c.273 0 .365.096.365.383l.091.955a7.652 7.652 0 012.28-1.242c.821-.287 1.55-.478 2.28-.478 1.094 0 1.915.287 2.462.86s.821 1.433.821 2.675v8.12c0 .19-.091.381-.365.381h-.638c-.183 0-.365-.095-.365-.382v-7.45c0-1.051-.182-1.72-.547-2.198-.365-.477-1.003-.668-1.733-.668-1.459 0-2.918.477-4.286 1.528v8.98c0 .19-.092.382-.365.382h-.456m16.981 0c-1.699 0-3.04-.474-3.845-1.517-.894-1.043-1.341-2.56-1.341-4.644 0-1.896.447-3.413 1.341-4.455.894-1.043 2.146-1.612 3.666-1.612 1.341 0 2.325.38 3.04 1.233.716.758 1.073 1.895 1.073 3.412 0 .569 0 1.042-.089 1.422 0 .19-.179.379-.358.379h-7.332c0 1.611.358 2.843.984 3.602.626.758 1.699 1.137 3.04 1.137 1.073 0 2.056-.19 2.95-.569.179-.095.358-.095.358-.095.09 0 .09 0 .179.095 0 .095.089.095.089.19v.379c0 .284-.089.38-.268.474-1.162.284-2.235.569-3.487.569zm2.682-6.92v-.758c0-1.137-.268-1.896-.715-2.464-.536-.569-1.252-.853-2.235-.853-2.325 0-3.487 1.327-3.666 4.075zm6.107 6.92c-.148 0-.295-.1-.295-.398V3.472c0-.199.074-.398.295-.398h.367c.221 0 .294.1.294.398l.074 1.392c.441-.696.883-1.193 1.324-1.392.441-.298.956-.398 1.471-.398h.441c.147 0 .294.1.294.398v.596c0 .1 0 .1-.073.2 0 .099-.074.099-.147.099h-.662c-.515 0-1.03.1-1.471.397-.442.299-.809.696-1.251 1.293v8.847c0 .199-.073.398-.294.398zm-68.33 25.886c-.183 0-.365-.096-.365-.385V29.828c0-.193.091-.386.365-.386h.456c.273 0 .365.097.365.385l.091.963a7.637 7.637 0 012.28-1.251c.821-.29 1.55-.482 2.28-.482 1.094 0 1.915.29 2.462.867.547.577.821 1.444.821 2.696v8.183c0 .193-.091.385-.365.385h-.638c-.183 0-.365-.096-.365-.385v-7.606c0-1.059-.182-1.733-.547-2.214s-1.003-.674-1.733-.674c-1.459 0-2.918.481-4.286 1.54v9.05c0 .193-.092.385-.365.385h-.456m16.981.001c-1.699 0-3.04-.474-3.845-1.517-.894-1.043-1.341-2.56-1.341-4.644 0-1.896.447-3.413 1.341-4.455s2.146-1.612 3.666-1.612c1.341 0 2.325.38 3.04 1.233.715.758 1.073 1.895 1.073 3.412 0 .568 0 1.042-.089 1.422 0 .19-.179.379-.358.379h-7.332c0 1.611.358 2.843.984 3.601.626.759 1.699 1.138 3.04 1.138 1.073 0 2.056-.19 2.95-.569.179-.095.358-.095.358-.095.089 0 .089 0 .179.095 0 .095.089.095.089.19v.379c0 .284-.089.379-.268.474-1.073.284-2.235.569-3.487.569zm2.682-7.014v-.759c0-1.137-.268-1.895-.715-2.464-.536-.569-1.252-.853-2.235-.853-2.325 0-3.487 1.327-3.666 4.076zm8.003 7.014c-.987 0-1.678-.287-2.171-.765-.494-.477-.79-1.146-.79-2.101v-7.833h-1.875c-.197 0-.395-.096-.395-.382v-.191c0-.096 0-.192.099-.287 0-.096.099-.096.296-.096l1.974-.19.197-3.057c0-.096.099-.192.099-.287.099-.096.099-.096.296-.096h.395c.197 0 .395.096.395.383v3.056h3.454c.198 0 .395.096.395.382v.478c0 .191-.098.382-.395.382h-3.454v7.738c0 .669.099 1.05.395 1.337.296.287.789.382 1.382.382.493 0 .888 0 1.184-.095.197 0 .296-.096.395-.096h.197c.198 0 .296.096.296.287v.382c0 .286-.098.382-.296.477-.592.096-1.283.192-2.073.192zm7.755 0a.479.479 0 01-.439-.299l-3.339-11.233c-.088-.199-.088-.298-.088-.398s.088-.198.264-.198h.703c.176 0 .263.1.351.298l2.9 10.239 2.548-10.24c.088-.198.175-.297.439-.297h.791c.175 0 .351.1.439.298l2.548 10.239 2.987-10.338c.088-.2.176-.299.352-.299h.615c.175 0 .263.1.263.2s0 .198-.088.397l-3.514 11.233c-.088.199-.176.298-.439.298h-.703a.477.477 0 01-.439-.298l-2.548-10.24-2.548 10.24c-.088.199-.176.298-.44.298h-.615m19.694.1c-1.68 0-2.987-.565-3.92-1.6-.933-1.034-1.4-2.539-1.4-4.514 0-1.881.467-3.386 1.4-4.515.933-1.034 2.24-1.599 3.92-1.599s2.987.565 3.92 1.6 1.4 2.539 1.4 4.514c0 1.881-.467 3.386-1.4 4.515-.933 1.034-2.24 1.599-3.92 1.599zm0-1.223c2.613 0 3.92-1.6 3.92-4.891 0-3.292-1.307-4.89-3.92-4.89S161 31.878 161 35.17s1.307 4.89 3.92 4.89zm8.654 1.123c-.147 0-.294-.1-.294-.398V29.456c0-.199.074-.398.294-.398h.368c.221 0 .294.1.294.398l.074 1.392c.441-.696.883-1.193 1.324-1.392.441-.298.956-.398 1.471-.398h.441c.147 0 .294.1.294.398v.596c0 .1 0 .1-.073.2-.074.099-.074.099-.147.099h-.662c-.515 0-1.03.099-1.471.397-.442.298-.809.696-1.251 1.292v8.848c0 .199-.073.397-.294.397h-.368m7.69 0c-.192 0-.384-.102-.384-.408V23.351c0-.204.096-.407.384-.407h.672c.192 0 .384.102.384.407v11.005l5.568-5.299c.192-.203.384-.203.576-.203h.864c.192 0 .288.101.288.203 0 .102-.096.204-.288.408l-5.664 5.298 6.144 6.012c.096.102.192.204.192.306 0 .204-.096.204-.288.204h-.96a.712.712 0 01-.48-.204l-5.952-5.91v5.706c0 .204-.096.408-.384.408z"/></g></svg>